<?xml version="1.0" standalone="no"?>
<!DOCTYPE svg PUBLIC "-//W3C//DTD SVG 20010904//EN"
 "http://www.w3.org/TR/2001/REC-SVG-20010904/DTD/svg10.dtd">
<svg version="1.0" xmlns="http://www.w3.org/2000/svg"
 width="200" viewBox="0 0 350 265"
 preserveAspectRatio="xMidYMid meet">
<metadata>
Srijan logo added by Joginder singh.
</metadata>
<g transform="translate(0.000000,270.000000) scale(0.100000,-0.100000)"
fill="#f9bb00" stroke="none">
<path d="M1555 2533 c-91 -5 -107 -10 -103 -36 4 -31 43 -47 114 -47 56 0 65
3 107 37 67 55 64 56 -118 46z"/>
<path d="M1750 2409 c-178 -40 -209 -44 -375 -44 -153 0 -170 -2 -173 -17 -6
-29 54 -75 106 -82 191 -27 399 -15 468 26 45 26 106 112 91 127 -14 14 -13
14 -117 -10z"/>
<path d="M2019 2200 c-9 -5 -101 -14 -205 -21 -266 -16 -265 -16 -409 -34 -71
-9 -167 -16 -211 -16 -106 1 -122 -13 -71 -64 l35 -35 144 0 c78 0 172 5 208
11 67 10 169 22 328 38 54 5 100 15 110 23 9 8 43 25 74 39 59 24 67 36 46 57
-14 14 -27 15 -49 2z"/>
<path d="M1080 1923 c-78 -5 -100 -11 -100 -29 0 -32 33 -70 73 -85 88 -34
495 -68 570 -48 43 11 163 4 172 -11 8 -12 153 -11 174 2 13 8 25 7 47 -5 25
-13 34 -13 60 -2 17 7 37 9 44 5 7 -4 35 -2 63 6 32 8 81 11 138 8 71 -4 93
-2 111 10 12 9 32 16 44 16 12 0 35 7 51 14 15 8 36 17 46 20 65 20 -45 61
-188 71 -27 2 -75 9 -105 15 -30 6 -101 12 -158 15 l-103 3 -18 -29 -18 -29
-27 31 c-25 27 -32 30 -84 28 -31 -1 -76 -9 -99 -17 -39 -13 -47 -13 -88 2
-50 20 -81 15 -108 -18 l-17 -21 -23 28 -23 27 -189 -2 c-105 -1 -215 -3 -245
-5z"/>
<path d="M1683 1719 c-6 -6 -22 -17 -35 -23 -38 -19 -50 -59 -53 -184 -2 -64
-8 -153 -14 -197 -6 -44 -15 -111 -20 -150 -6 -38 -10 -105 -10 -148 -1 -76 0
-80 30 -108 30 -28 31 -33 26 -80 -4 -28 -11 -57 -17 -64 -6 -8 -7 -16 -2 -19
12 -7 48 32 57 62 3 12 11 22 16 22 5 0 9 15 9 33 0 17 6 52 14 77 19 61 36
164 47 285 5 55 13 141 17 190 6 67 4 104 -6 144 -7 30 -11 69 -8 87 11 58
-20 104 -51 73z"/>
<path d="M988 677 c-34 -15 -78 -73 -78 -104 0 -27 62 -99 93 -109 35 -10 84
-51 90 -75 4 -14 -2 -29 -19 -46 -21 -21 -31 -24 -62 -19 -59 11 -84 9 -93 -6
-12 -18 -11 -24 7 -42 21 -22 136 -22 169 0 30 20 65 78 65 108 0 39 -53 100
-114 131 -77 39 -89 83 -29 106 18 6 37 6 60 -2 26 -8 37 -8 48 1 21 17 19 47
-4 60 -26 13 -99 12 -133 -3z"/>
<path d="M1813 678 c-4 -7 -6 -82 -4 -166 3 -170 2 -176 -60 -192 -28 -8 -39
-16 -39 -30 0 -42 82 -50 119 -11 43 43 45 49 49 219 3 150 1 168 -14 179 -22
16 -41 17 -51 1z"/>
<path d="M2113 675 c-12 -8 -24 -27 -27 -43 -4 -15 -20 -54 -36 -86 -17 -32
-30 -65 -30 -73 0 -7 -4 -21 -9 -31 -83 -161 -88 -182 -42 -182 26 0 31 5 46
50 9 27 21 53 27 56 9 6 127 9 176 5 7 -1 24 -26 38 -57 22 -50 27 -55 52 -52
22 2 27 8 25 30 -1 14 -12 43 -26 65 -13 21 -27 49 -31 63 -4 14 -11 34 -16
45 -9 21 -34 80 -65 155 -17 41 -40 70 -55 70 -3 0 -15 -7 -27 -15z m45 -107
c34 -69 53 -122 48 -134 -4 -10 -24 -14 -71 -14 -62 0 -65 1 -65 24 0 39 51
146 69 146 4 0 13 -10 19 -22z"/>
<path d="M2661 676 c-8 -10 -9 -55 -5 -155 5 -101 4 -141 -4 -141 -13 0 -41
47 -115 191 l-54 104 -44 0 -44 0 -2 -185 c-3 -222 -2 -232 35 -228 l27 3 0
150 c0 83 1 154 3 159 4 17 30 -15 58 -72 16 -31 44 -84 64 -117 19 -34 42
-74 50 -90 13 -25 22 -30 50 -30 l35 0 6 200 c5 174 4 202 -9 213 -20 16 -37
15 -51 -2z"/>
<path d="M1233 665 c-3 -9 -3 -74 0 -146 4 -72 2 -153 -3 -181 -11 -57 -2 -78
35 -78 29 0 36 27 28 111 -5 61 -4 68 16 78 37 20 71 -5 98 -74 40 -98 49
-110 82 -113 25 -3 31 1 31 15 0 11 -4 23 -9 29 -15 16 -81 147 -81 162 0 8
14 27 30 42 43 41 42 88 -5 135 -36 35 -36 35 -126 35 -71 0 -91 -3 -96 -15z
m175 -61 c46 -32 9 -104 -54 -104 -56 0 -64 8 -64 59 0 26 3 51 7 54 12 13 89
7 111 -9z"/>
<path d="M1589 668 c-3 -43 4 -383 8 -394 8 -20 51 -17 56 4 3 9 4 103 3 207
l-1 190 -32 3 c-22 2 -33 -1 -34 -10z"/>
</g>
</svg>
