<svg xmlns="http://www.w3.org/2000/svg" viewBox="0 0 67.51 67.51"><defs><style>.cls-1{fill:#ffdd67;}.cls-2{fill:#664e27;}</style></defs><title>3</title><g id="Layer_2" data-name="Layer 2"><g id="Layer_1-2" data-name="Layer 1"><circle class="cls-1" cx="33.75" cy="33.75" r="33.75"/><path class="cls-1" d="M64.69,33.75A30.94,30.94,0,1,0,33.75,64.69,31,31,0,0,0,64.69,33.75Z"/><path class="cls-2" d="M53.95,40.44c-2.56,9-11.25,14.25-20.2,14.25s-17.64-5.25-20.2-14.25a1.18,1.18,0,0,1,2.07-1C20.5,46.27,26.26,48,33.75,48S47,46.27,51.88,39.4A1.18,1.18,0,0,1,53.95,40.44Z"/><circle class="cls-2" cx="20.81" cy="25.42" r="5.63"/><circle class="cls-2" cx="46.69" cy="25.42" r="5.63"/></g></g></svg>