<svg xmlns="http://www.w3.org/2000/svg" viewBox="0 0 67.51 67.51"><defs><style>.cls-1{fill:#ffdd67;}.cls-2{fill:#664e27;}.cls-3{fill:#fff;}</style></defs><title>4</title><g id="Layer_2" data-name="Layer 2"><g id="Layer_1-2" data-name="Layer 1"><circle class="cls-1" cx="33.75" cy="33.75" r="33.75"/><path class="cls-1" d="M64.69,33.75A30.94,30.94,0,1,0,33.76,64.69,31,31,0,0,0,64.69,33.75Z"/><path class="cls-2" d="M21.45,26a9.29,9.29,0,0,0-7,3c-.54.57-1.62-.48-1.41-1.06,2.09-5.75,5.24-8.63,8.39-8.63s6.3,2.88,8.39,8.63c.21.58-.87,1.62-1.41,1.06A9.28,9.28,0,0,0,21.45,26Z"/><path class="cls-2" d="M52.88,40.56C52.88,48.74,46.57,57,33.75,57S14.63,48.74,14.63,40.56a2.34,2.34,0,0,1,2-2.33,91.16,91.16,0,0,1,17.08-1.51,91.16,91.16,0,0,1,17.08,1.51A2.34,2.34,0,0,1,52.88,40.56Z"/><path class="cls-3" d="M48,40.82a90.05,90.05,0,0,0-28.56,0c-1.46.24-1.55.84-1.44,1.67.06.5.16,1.1.3,1.75s.29,1.05,1.42.92c2.16-.26,25.84-.26,28,0,1.13.14,1.27-.2,1.42-.92s.24-1.25.3-1.75C49.58,41.66,49.49,41.07,48,40.82Z"/><path class="cls-2" d="M54.45,28c.21.58-.87,1.63-1.41,1.06a9.65,9.65,0,0,0-14,0c-.54.57-1.62-.48-1.41-1.06,2.09-5.75,5.24-8.63,8.39-8.63S52.36,22.21,54.45,28Z"/></g></g></svg>