<svg xmlns="http://www.w3.org/2000/svg" viewBox="0 0 67.52 67.66"><defs><style>.cls-1{fill:#f46767;}.cls-2{fill:#ffdd67;}.cls-3{fill:#664e27;}.cls-4{fill:#fff;}</style></defs><title>5</title><g id="Layer_2" data-name="Layer 2"><g id="Layer_1-2" data-name="Layer 1"><path class="cls-1" d="M67.52,33.89A33.75,33.75,0,1,1,2.3,21.7,12,12,0,0,1,.19,12.76c.52-3,2.29-5.5,5-6.25A7.46,7.46,0,0,1,12,8.14c1.14-1,5-6.28,8.9-7.68a9,9,0,0,1,6.42.31,33.73,33.73,0,0,1,13,0c1.9-.84,4.37-.39,6.38.11,3.22.81,7.76,4.77,8.95,7.26a7.46,7.46,0,0,1,6.75-1.62c2.74.75,4.5,3.26,5,6.25a12,12,0,0,1-2.11,8.94A33.66,33.66,0,0,1,67.52,33.89Z"/><path class="cls-2" d="M67.5,33.91a32.64,32.64,0,0,0-2.28-12.19c-4.49,4.15-13.89,11.95-14.29,12.19-.33-.36-11.78-12.7-14.34-18.78-2.73-6.5,1-11.06,3.58-14.28l.06-.06A30.15,30.15,0,0,0,33.75.16a31.45,31.45,0,0,0-6.46.61l.06.06c2.55,3.23,6.29,7.8,3.56,14.3-2.56,6.08-14,18.42-14.34,18.78-.39-.25-9.8-8-14.29-12.19A33.75,33.75,0,1,0,67.5,33.91Z"/><path class="cls-3" d="M52.9,40.7c0,8.18-6.32,16.42-19.13,16.42S14.64,48.88,14.64,40.7a2.34,2.34,0,0,1,2-2.33,91.18,91.18,0,0,1,17.08-1.51,91.24,91.24,0,0,1,17.08,1.51A2.34,2.34,0,0,1,52.9,40.7Z"/><path class="cls-4" d="M48,41a89.93,89.93,0,0,0-28.56,0c-1.46.24-1.55.84-1.44,1.67.06.5.16,1.1.3,1.75s.29,1.05,1.42.92c2.16-.26,25.84-.26,28,0,1.13.13,1.26-.2,1.42-.92s.24-1.25.3-1.75C49.59,41.8,49.5,41.2,48,41Z"/></g></g></svg>