<svg xmlns="http://www.w3.org/2000/svg" viewBox="0 0 343.79 215.82" fill="#ccc"><defs></defs><title>barbet</title><g id="Layer_2" data-name="Layer 2"><g id="Layer_1-2" data-name="Layer 1"><path class="cls-1" d="M235.1,34.61l-.8-.2a9.71,9.71,0,0,0-10.72,7.81h0c-1.11,5.64,3,9.6,7.89,10.41l.57.1c4.87.81,9.83-1.55,10.89-7.28C243.92,40.19,240,35.42,235.1,34.61Zm4.83,10.33A6.2,6.2,0,0,1,232.82,50l-1.15-.19a6.18,6.18,0,0,1,2-12.2l1.15.19A6.2,6.2,0,0,1,239.94,44.94Z"></path><path class="cls-1" d="M275.65,47.38c.11,6.75,8.44,6.9,7.39,8s-4.25,0-4.25,0H264.16s1.63-1.62-13.37,5.13c-9.13,4.11-8.95,7-7.72,8.88,5,.47,24,2.22,47.39,3.78,11.47.77,38-.42,48.83,8.83-6.43-2.8-14.87-8.17-52-7.5-11.08.2-34.91-2.33-42.76-3.21.16.28.2.51,0,.71-1.37,1.38,1.38,5.63,4.38,6.38s-1.12,1.13-2.87,1.13-5.37,2.63-4.25,1.5-.25-2.89-.25-2.89-6.14,0-3.78-2.36,0-4,1-5-3.28-1.22-5-2.94,4.81,0,6.38-1.56S237.41,60,232.91,60c-.75-2.37-4-4.81-6.5-6-6.55-3.15-7.37-10.75-10.12-13.5s-5.62,1.13-9.12-4.63C200.79,33,193,28.71,176.29,26c17.25-2.75,30.5,7,30.5,7s6.4,3.11,15.25-.5c12.52-5.1,21.13,1.38,22.75,3,2.3,2.3,10.25,13.5,18,15.5a10.4,10.4,0,0,0,11.5-4c-13.5-31.5-38.5-38.5-38.5-38.5s-41-16-81-4L153.1,5c1-.31,2.87-.2,5.09-.82,0,3.29-2.47,17.23,6.28,23.62s11.81,30,11.81,30,4.47,3,5.26,7-2,13.61,0,16.43a5.59,5.59,0,0,1,1.33,3.18,79.47,79.47,0,0,1,5.51,19.45c.09,6.5-2.54,18.79-2.54,18.79s-.31-7.7-.31-21.2c0-9.71-3.6-13.09-5.81-17.06-6-3.71-23.78-17.23-29.45-31.06-6.65-16.19,1.89-47.93,1.93-48.09-38.11,12.1-53.64,32.21-69.54,46.65-3.66,3.32-12.56,9.59-16.86,13-4.84,3.85-3.53,9-16,15.53S11.29,114,11.29,114c-39.13,37.34,35,43.17,48,44.5,43,6,97.63-41.67,125-18-8,20,4.13,55.38,13.13,64.38s20,17.77,34.54,3.27,32.33-69.64,25.33-76.64-3.62-12.12-3.62-16.12,5.13-17.88,5.13-17.88,5,7.13,8.75,7.13a14.24,14.24,0,0,1-4.12-11c4.36,4.36,12.37,8.39,14.87,9.39-4.5-2.25-10-16.5-7-12.5s14,5.5,14,5.5-17-9.5-2-7,56-5.5,56-5.5,3,2,4.5,2C343.79,65.48,287.79,51,275.65,47.38Z"></path></g></g></svg>