<svg xmlns="http://www.w3.org/2000/svg" viewBox="0 0 175.53 235.15"><defs><style>.cls-1{fill:#515151;}.cls-2,.cls-3{fill:none;stroke:#fff;stroke-linejoin:round;}.cls-2{stroke-linecap:round;stroke-width:2.14px;}.cls-3{stroke-linecap:square;stroke-width:2.14px;}.cls-4{fill:#fff;}</style></defs><title>Barbet-noti</title><g id="Layer_2" data-name="Layer 2"><g id="Layer_1-2" data-name="Layer 1"><g id="Layer_2-2" data-name="Layer 2"><g id="Layer_1-2-2" data-name="Layer 1-2"><path class="cls-1" d="M137.23,77.16c-2.81-2.27-4.41-9.11-4.41-12.72V45.06A45.19,45.19,0,0,0,87.77,0h0A45.19,45.19,0,0,0,42.71,45.06V64.44c0,3.61-1.6,10.46-4.41,12.72C22.63,89.79,0,127.95,0,161.21L12.56,152c0,37.81,30.93,83.15,68.74,83.15H94.23C132,235.15,163,189.81,163,152l12.56,9.2C175.53,127.95,152.9,89.79,137.23,77.16Zm-82-44a11.18,11.18,0,1,1,0,2.2A11.15,11.15,0,0,1,55.23,33.16ZM87.77,73s-18-5.14-25.65-14c0,0,9.37-1.57,16.27,1.33,3.23,1.36,6.22,8.49,9.38,8.49,3.37,0,4.93-6.63,8.78-8.37,6.38-2.87,16.86-1.45,16.86-1.45C105.3,68.23,87.77,73,87.77,73Zm31.7-37.59a11.18,11.18,0,1,1,0-2.2A11.15,11.15,0,0,1,119.46,35.43Z"/><path class="cls-2" d="M116.71,60.22c-7-2.41-12.87-1.42-18.71-.2s-5.4,8.85-10.23,8.85S83.43,62.12,77.53,60c-5.72-2-10.23-2.47-18.71.2,2.84-10.45,13.61-7.41,16.25-8.29,5.38-1.77,6.92-8.38,12.7-8.38,5.5,0,6,7.21,12.6,8.3C103.5,52.37,113.06,49.41,116.71,60.22Z"/><path class="cls-2" d="M60.71,60c0,2.45,2.48,5.18,5.93,7.8,8,6,21.12,11.5,21.12,11.5s13.16-5.46,21.12-11.5c3.46-2.62,5.93-5.36,5.93-7.8"/><path class="cls-1" d="M68.47,27.31a8,8,0,1,0,8,8,8,8,0,0,0-8-8Zm-6.58,9.18c-1-7.26,6.54-7.83,6.54-7.83l1,2.5c-5-.48-7.51,5.33-7.51,5.33Z"/><path class="cls-1" d="M106.22,27.31a8,8,0,1,0,8,8A8,8,0,0,0,106.22,27.31Zm-6.08,9.18c-1-7.26,6.54-7.83,6.54-7.83l1,2.5C102.64,30.68,100.15,36.49,100.15,36.49Z"/><path class="cls-3" d="M23.46,175.82S61.8,154.28,55.73,97.35c17.86,23.9,47.8,24.54,63.1,0-6.07,59.11,32.57,78.46,32.57,78.46"/><path class="cls-3" d="M48.16,115.42c-5.39,1.8-8.9-2.74-7.51-7.28-4,4-8.19-1.53-6.84-7.33-6.48,1.61-4.9-7.93-4.9-7.93s-4.19,28.08-14.09,38"/><path class="cls-3" d="M48.16,115.42S42,148.7,23.46,165.16"/><path class="cls-3" d="M40.41,109.25s-4.6,31.21-20.82,45.49"/><path class="cls-3" d="M33.81,100.81S30,130.05,16,144.09"/><path class="cls-3" d="M126.7,115.42c5.39,1.8,8.9-2.74,7.51-7.28,4,4,8.19-1.53,6.84-7.33,6.48,1.61,4.9-7.93,4.9-7.93s4.19,28.08,14.09,38"/><path class="cls-3" d="M126.7,115.42s6.13,33.28,24.7,49.74"/><path class="cls-3" d="M134.46,109.25s4.6,31.21,20.82,45.49"/><path class="cls-3" d="M141.05,100.81s3.82,29.24,17.86,43.29"/><path class="cls-4" d="M67,5.09s-17.84,15-20.34,48.19C44.16,33.72,47.37,19.2,67,5.09Z"/><path class="cls-4" d="M108.53,5.09s17.84,15,20.34,48.19C131.33,33.72,128.12,19.2,108.53,5.09Z"/></g></g></g></g></svg>